<svg xmlns="http://www.w3.org/2000/svg"  viewBox="0 0 64 64" width="64px" height="64px"><path fill="#FFFFFF" d="M52,38c0,0-2-5,2-8c0,0-6-8,1-13c0,0-11,4-12-2c0,0-4,4-6,0s5-4,5-4h6c0,0,6.05-7,4-9	c-0.54-0.53-3.96,4.41-6,4c-5-1-12,4-12,4l-4-1c0,0,0,7-5,7s-1-4-1-4l-3-4c0,0-2,7-6,6c0,0,2,4,0,6c-2.55,2.55-7,2-7,2s6,7,1,7	c0,0,8,10-2,12c0,0,11,9,4,11c0,0,10,0,11,8c0,0,4-3,8,0c0,0,3-8,11,2c4-3,0-8,8-9c0,0,1-8,11-13C60,40,64,36,52,38z M32,52	c-8.28,0-15-6.72-15-15c0-8.28,6.72-15,15-15s15,6.72,15,15C47,45.28,40.28,52,32,52z"/><path fill="none" stroke="#8d6c9f" stroke-linecap="round" stroke-linejoin="round" stroke-miterlimit="10" stroke-width="2" d="M47,37	c0,8.284-6.716,15-15,15s-15-6.716-15-15s6.716-15,15-15"/><path fill="#8d6c9f" d="M35.776,24.53c-0.09,0-0.18-0.012-0.271-0.037c-0.531-0.148-0.842-0.7-0.693-1.232l0.538-1.926 c0.148-0.532,0.702-0.842,1.232-0.693c0.531,0.148,0.842,0.7,0.693,1.232L36.738,23.8C36.615,24.241,36.213,24.53,35.776,24.53z"/><path fill="#8d6c9f" d="M40.065,26.57c-0.199,0-0.401-0.06-0.576-0.184c-0.451-0.318-0.559-0.942-0.239-1.394l1.154-1.633 c0.317-0.45,0.943-0.558,1.394-0.239c0.451,0.318,0.559,0.942,0.239,1.394l-1.154,1.633C40.688,26.423,40.379,26.57,40.065,26.57 z"/><path fill="#8d6c9f" d="M43.431,29.934c-0.313,0-0.623-0.147-0.817-0.423c-0.319-0.451-0.212-1.075,0.239-1.394 l1.633-1.154c0.45-0.319,1.076-0.211,1.394,0.239c0.319,0.451,0.212,1.075-0.239,1.394l-1.633,1.154 C43.832,29.874,43.63,29.934,43.431,29.934z"/><path fill="#8d6c9f" d="M45.469,34.225c-0.437,0-0.839-0.289-0.962-0.73c-0.148-0.532,0.162-1.084,0.693-1.232 l1.926-0.538c0.532-0.147,1.084,0.161,1.232,0.693s-0.162,1.084-0.693,1.232l-1.926,0.538 C45.648,34.213,45.559,34.225,45.469,34.225z"/><path fill="none" stroke="#FFFFFF" stroke-linecap="round" stroke-linejoin="round" stroke-miterlimit="10" stroke-width="2" d="M43,15	c0,0-4,4-6,0s5-4,5-4h6c0,0,6.047-7,4-9c-0.542-0.53-3.963,4.407-6,4c-5-1-12,4-12,4l-4-1c0,0,0,7-5,7s-1-4-1-4l-3-4c0,0-2,7-6,6	c0,0,2,4,0,6c-2.55,2.55-7,2-7,2s6,7,1,7c0,0,8,10-2,12c0,0,11,9,4,11c0,0,10,0,11,8c0,0,4-3,8,0c0,0,3-8,11,2c4-3,0-8,8-9	c0,0,1-8,11-13c0,0,4-4-8-2c0,0-2-5,2-8c0,0-6-8,1-13C55,17,44,21,43,15z"/></svg>