<svg xmlns:xlink="http://www.w3.org/1999/xlink" class="logo--ss-logo" aria-hidden="true" aria-labelledby="ss-logo-crosshair--1OfL62YtDG" role="img" fill="currentColor" xmlns="http://www.w3.org/2000/svg" viewBox="0 0 26.8 26.9" width="33"  height="33" ><desc id="ss-logo-crosshair--1OfL62YtDG" fill="#FFFFFF">Crosshair logo</desc><path d="M17.7,4.9V2c0-1.1-0.9-2-2-2s-2,0.9-2,2v2.9c-4.5,0.8-8,4.4-8.9,8.9H2c-1.1,0-2,0.9-2,2c0,1.1,0.9,2,2,2h2.8 c1.1,6,6.9,10,12.9,8.9s10-6.9,8.9-12.9C25.8,9.3,22.2,5.7,17.7,4.9 M15.7,22.8c-3.9,0-7-3.1-7-7s3.1-7,7-7s7,3.1,7,7 S19.6,22.8,15.7,22.8" fill="#FFFFFF"></path><path d="M11.3,15.8c0,2.4,1.9,4.3,4.3,4.3s4.3-1.9,4.3-4.3s-1.9-4.3-4.3-4.3l0,0C13.3,11.5,11.3,13.4,11.3,15.8 M14.3,15.8 c0-0.7,0.6-1.3,1.3-1.3c0.7,0,1.3,0.6,1.3,1.3c0,0.7-0.6,1.3-1.3,1.3l0,0l0,0C14.9,17.1,14.3,16.5,14.3,15.8" fill="#FFFFFF"></path><path d="M7.2,5.6c0,1.1-0.9,2-2,2s-2-0.9-2-2s0.9-2,2-2S7.2,4.5,7.2,5.6" fill="#FFFFFF"></path></svg>